<mxfile host="app.diagrams.net" agent="Mozilla/5.0 (Windows NT 10.0; Win64; x64; rv:139.0) Gecko/20100101 Firefox/139.0" version="27.1.5">
  <diagram name="Page-1" id="f4nWk4wcNnq3dIIEYQ2p">
    <mxGraphModel dx="1489" dy="941" grid="1" gridSize="10" guides="1" tooltips="1" connect="1" arrows="0" fold="1" page="1" pageScale="1" pageWidth="1169" pageHeight="827" math="0" shadow="0">
      <root>
        <mxCell id="0" />
        <mxCell id="1" parent="0" />
        <mxCell id="kstmgTYiOAI1YQ1nsx7w-1" value="&lt;font style=&quot;font-size: 20px;&quot;&gt;Is &lt;i&gt;&lt;b&gt;a*b &lt;/b&gt;&lt;/i&gt;significant?&lt;/font&gt;" style="strokeWidth=2;html=1;shape=mxgraph.flowchart.decision;whiteSpace=wrap;" vertex="1" parent="1">
          <mxGeometry x="487" y="30" width="194" height="170" as="geometry" />
        </mxCell>
        <mxCell id="kstmgTYiOAI1YQ1nsx7w-2" value="&lt;font style=&quot;font-size: 20px;&quot;&gt;Is &lt;i&gt;&lt;b&gt;c&#39; &lt;/b&gt;&lt;/i&gt;significant?&lt;/font&gt;" style="strokeWidth=2;html=1;shape=mxgraph.flowchart.decision;whiteSpace=wrap;" vertex="1" parent="1">
          <mxGeometry x="293" y="200" width="194" height="170" as="geometry" />
        </mxCell>
        <mxCell id="kstmgTYiOAI1YQ1nsx7w-3" value="&lt;font style=&quot;font-size: 20px;&quot;&gt;Is&lt;i&gt;&lt;b&gt;&amp;nbsp;c&#39;&amp;nbsp;&lt;/b&gt;&lt;/i&gt;significant?&lt;/font&gt;" style="strokeWidth=2;html=1;shape=mxgraph.flowchart.decision;whiteSpace=wrap;" vertex="1" parent="1">
          <mxGeometry x="790" y="200" width="194" height="170" as="geometry" />
        </mxCell>
        <mxCell id="kstmgTYiOAI1YQ1nsx7w-16" style="edgeStyle=none;rounded=0;orthogonalLoop=1;jettySize=auto;html=1;exitX=1;exitY=0.5;exitDx=0;exitDy=0;exitPerimeter=0;" edge="1" parent="1" source="kstmgTYiOAI1YQ1nsx7w-4" target="kstmgTYiOAI1YQ1nsx7w-11">
          <mxGeometry relative="1" as="geometry" />
        </mxCell>
        <mxCell id="kstmgTYiOAI1YQ1nsx7w-4" value="&lt;font style=&quot;font-size: 20px;&quot;&gt;Is &lt;i&gt;&lt;b&gt;a*b*c&#39; &lt;/b&gt;&lt;/i&gt;positive?&lt;/font&gt;" style="strokeWidth=2;html=1;shape=mxgraph.flowchart.decision;whiteSpace=wrap;" vertex="1" parent="1">
          <mxGeometry x="140" y="414" width="194" height="170" as="geometry" />
        </mxCell>
        <mxCell id="kstmgTYiOAI1YQ1nsx7w-7" style="edgeStyle=orthogonalEdgeStyle;rounded=0;orthogonalLoop=1;jettySize=auto;html=1;exitX=0;exitY=0.5;exitDx=0;exitDy=0;exitPerimeter=0;entryX=0.5;entryY=0;entryDx=0;entryDy=0;entryPerimeter=0;" edge="1" parent="1" source="kstmgTYiOAI1YQ1nsx7w-1" target="kstmgTYiOAI1YQ1nsx7w-2">
          <mxGeometry relative="1" as="geometry" />
        </mxCell>
        <mxCell id="kstmgTYiOAI1YQ1nsx7w-8" style="edgeStyle=orthogonalEdgeStyle;rounded=0;orthogonalLoop=1;jettySize=auto;html=1;exitX=1;exitY=0.5;exitDx=0;exitDy=0;exitPerimeter=0;entryX=0.5;entryY=0;entryDx=0;entryDy=0;entryPerimeter=0;" edge="1" parent="1" source="kstmgTYiOAI1YQ1nsx7w-1" target="kstmgTYiOAI1YQ1nsx7w-3">
          <mxGeometry relative="1" as="geometry" />
        </mxCell>
        <mxCell id="kstmgTYiOAI1YQ1nsx7w-9" style="edgeStyle=orthogonalEdgeStyle;rounded=0;orthogonalLoop=1;jettySize=auto;html=1;exitX=0;exitY=0.5;exitDx=0;exitDy=0;exitPerimeter=0;entryX=0.5;entryY=0;entryDx=0;entryDy=0;entryPerimeter=0;" edge="1" parent="1" source="kstmgTYiOAI1YQ1nsx7w-2" target="kstmgTYiOAI1YQ1nsx7w-4">
          <mxGeometry relative="1" as="geometry">
            <Array as="points">
              <mxPoint x="237" y="285" />
            </Array>
          </mxGeometry>
        </mxCell>
        <mxCell id="kstmgTYiOAI1YQ1nsx7w-10" value="&lt;div&gt;&lt;font style=&quot;font-size: 18px;&quot;&gt;Complementary&lt;/font&gt;&lt;/div&gt;&lt;div&gt;&lt;font style=&quot;font-size: 18px;&quot;&gt;(partial mediation)&lt;/font&gt;&lt;/div&gt;" style="strokeWidth=2;html=1;shape=mxgraph.flowchart.terminator;whiteSpace=wrap;" vertex="1" parent="1">
          <mxGeometry x="60" y="630" width="170" height="90" as="geometry" />
        </mxCell>
        <mxCell id="kstmgTYiOAI1YQ1nsx7w-11" value="&lt;div&gt;&lt;font style=&quot;font-size: 18px;&quot;&gt;Competitive&lt;/font&gt;&lt;/div&gt;&lt;div&gt;&lt;font style=&quot;font-size: 18px;&quot;&gt;(partial mediation)&lt;/font&gt;&lt;/div&gt;" style="strokeWidth=2;html=1;shape=mxgraph.flowchart.terminator;whiteSpace=wrap;" vertex="1" parent="1">
          <mxGeometry x="250" y="630" width="170" height="90" as="geometry" />
        </mxCell>
        <mxCell id="kstmgTYiOAI1YQ1nsx7w-12" value="&lt;div&gt;&lt;font style=&quot;font-size: 18px;&quot;&gt;Indirect only&lt;/font&gt;&lt;/div&gt;&lt;div&gt;&lt;font style=&quot;font-size: 18px;&quot;&gt;(full mediation)&lt;/font&gt;&lt;/div&gt;" style="strokeWidth=2;html=1;shape=mxgraph.flowchart.terminator;whiteSpace=wrap;" vertex="1" parent="1">
          <mxGeometry x="470" y="630" width="170" height="90" as="geometry" />
        </mxCell>
        <mxCell id="kstmgTYiOAI1YQ1nsx7w-13" value="&lt;div&gt;&lt;font style=&quot;font-size: 18px;&quot;&gt;Direct only&lt;/font&gt;&lt;/div&gt;&lt;div&gt;&lt;font style=&quot;font-size: 18px;&quot;&gt;(No mediation)&lt;/font&gt;&lt;/div&gt;" style="strokeWidth=2;html=1;shape=mxgraph.flowchart.terminator;whiteSpace=wrap;" vertex="1" parent="1">
          <mxGeometry x="681" y="630" width="170" height="90" as="geometry" />
        </mxCell>
        <mxCell id="kstmgTYiOAI1YQ1nsx7w-14" value="&lt;div&gt;&lt;font style=&quot;font-size: 18px;&quot;&gt;No effect&lt;/font&gt;&lt;/div&gt;&lt;div&gt;&lt;font style=&quot;font-size: 18px;&quot;&gt;(No mediation)&lt;/font&gt;&lt;/div&gt;" style="strokeWidth=2;html=1;shape=mxgraph.flowchart.terminator;whiteSpace=wrap;" vertex="1" parent="1">
          <mxGeometry x="960" y="630" width="170" height="90" as="geometry" />
        </mxCell>
        <mxCell id="kstmgTYiOAI1YQ1nsx7w-15" style="edgeStyle=none;rounded=0;orthogonalLoop=1;jettySize=auto;html=1;exitX=0;exitY=0.5;exitDx=0;exitDy=0;exitPerimeter=0;" edge="1" parent="1" source="kstmgTYiOAI1YQ1nsx7w-4">
          <mxGeometry relative="1" as="geometry">
            <mxPoint x="140" y="626" as="targetPoint" />
          </mxGeometry>
        </mxCell>
        <mxCell id="kstmgTYiOAI1YQ1nsx7w-18" style="edgeStyle=orthogonalEdgeStyle;rounded=0;orthogonalLoop=1;jettySize=auto;html=1;exitX=1;exitY=0.5;exitDx=0;exitDy=0;exitPerimeter=0;entryX=0.5;entryY=0;entryDx=0;entryDy=0;entryPerimeter=0;" edge="1" parent="1" source="kstmgTYiOAI1YQ1nsx7w-2" target="kstmgTYiOAI1YQ1nsx7w-12">
          <mxGeometry relative="1" as="geometry" />
        </mxCell>
        <mxCell id="kstmgTYiOAI1YQ1nsx7w-19" style="edgeStyle=orthogonalEdgeStyle;rounded=0;orthogonalLoop=1;jettySize=auto;html=1;exitX=0;exitY=0.5;exitDx=0;exitDy=0;exitPerimeter=0;entryX=0.5;entryY=0;entryDx=0;entryDy=0;entryPerimeter=0;" edge="1" parent="1" source="kstmgTYiOAI1YQ1nsx7w-3" target="kstmgTYiOAI1YQ1nsx7w-13">
          <mxGeometry relative="1" as="geometry" />
        </mxCell>
        <mxCell id="kstmgTYiOAI1YQ1nsx7w-20" style="edgeStyle=orthogonalEdgeStyle;rounded=0;orthogonalLoop=1;jettySize=auto;html=1;exitX=1;exitY=0.5;exitDx=0;exitDy=0;exitPerimeter=0;entryX=0.5;entryY=0;entryDx=0;entryDy=0;entryPerimeter=0;" edge="1" parent="1" source="kstmgTYiOAI1YQ1nsx7w-3" target="kstmgTYiOAI1YQ1nsx7w-14">
          <mxGeometry relative="1" as="geometry" />
        </mxCell>
        <mxCell id="kstmgTYiOAI1YQ1nsx7w-21" value="&lt;font style=&quot;font-size: 18px; color: rgb(51, 51, 255);&quot;&gt;&lt;b&gt;YES&lt;/b&gt;&lt;/font&gt;" style="text;html=1;align=center;verticalAlign=middle;resizable=0;points=[];autosize=1;strokeColor=none;fillColor=none;" vertex="1" parent="1">
          <mxGeometry x="350" y="80" width="60" height="40" as="geometry" />
        </mxCell>
        <mxCell id="kstmgTYiOAI1YQ1nsx7w-26" value="&lt;font style=&quot;font-size: 18px; color: rgb(51, 51, 255);&quot;&gt;&lt;b&gt;YES&lt;/b&gt;&lt;/font&gt;" style="text;html=1;align=center;verticalAlign=middle;resizable=0;points=[];autosize=1;strokeColor=none;fillColor=none;" vertex="1" parent="1">
          <mxGeometry x="170" y="265" width="60" height="40" as="geometry" />
        </mxCell>
        <mxCell id="kstmgTYiOAI1YQ1nsx7w-27" value="&lt;font style=&quot;font-size: 18px; color: rgb(51, 51, 255);&quot;&gt;&lt;b&gt;YES&lt;/b&gt;&lt;/font&gt;" style="text;html=1;align=center;verticalAlign=middle;resizable=0;points=[];autosize=1;strokeColor=none;fillColor=none;" vertex="1" parent="1">
          <mxGeometry x="70" y="470" width="60" height="40" as="geometry" />
        </mxCell>
        <mxCell id="kstmgTYiOAI1YQ1nsx7w-28" value="&lt;font style=&quot;font-size: 18px; color: rgb(51, 51, 255);&quot;&gt;&lt;b&gt;YES&lt;/b&gt;&lt;/font&gt;" style="text;html=1;align=center;verticalAlign=middle;resizable=0;points=[];autosize=1;strokeColor=none;fillColor=none;" vertex="1" parent="1">
          <mxGeometry x="700" y="265" width="60" height="40" as="geometry" />
        </mxCell>
        <mxCell id="kstmgTYiOAI1YQ1nsx7w-29" value="&lt;font style=&quot;font-size: 18px; color: rgb(255, 0, 0);&quot;&gt;&lt;b&gt;NO&lt;/b&gt;&lt;/font&gt;" style="text;html=1;align=center;verticalAlign=middle;resizable=0;points=[];autosize=1;strokeColor=none;fillColor=none;" vertex="1" parent="1">
          <mxGeometry x="550" y="260" width="50" height="40" as="geometry" />
        </mxCell>
        <mxCell id="kstmgTYiOAI1YQ1nsx7w-30" value="&lt;font style=&quot;font-size: 18px; color: rgb(255, 0, 0);&quot;&gt;&lt;b&gt;NO&lt;/b&gt;&lt;/font&gt;" style="text;html=1;align=center;verticalAlign=middle;resizable=0;points=[];autosize=1;strokeColor=none;fillColor=none;" vertex="1" parent="1">
          <mxGeometry x="340" y="479" width="50" height="40" as="geometry" />
        </mxCell>
        <mxCell id="kstmgTYiOAI1YQ1nsx7w-31" value="&lt;font style=&quot;font-size: 18px; color: rgb(255, 0, 0);&quot;&gt;&lt;b&gt;NO&lt;/b&gt;&lt;/font&gt;" style="text;html=1;align=center;verticalAlign=middle;resizable=0;points=[];autosize=1;strokeColor=none;fillColor=none;" vertex="1" parent="1">
          <mxGeometry x="880" y="90" width="50" height="40" as="geometry" />
        </mxCell>
        <mxCell id="kstmgTYiOAI1YQ1nsx7w-32" value="&lt;font style=&quot;font-size: 18px; color: rgb(255, 0, 0);&quot;&gt;&lt;b&gt;NO&lt;/b&gt;&lt;/font&gt;" style="text;html=1;align=center;verticalAlign=middle;resizable=0;points=[];autosize=1;strokeColor=none;fillColor=none;" vertex="1" parent="1">
          <mxGeometry x="1040" y="260" width="50" height="40" as="geometry" />
        </mxCell>
      </root>
    </mxGraphModel>
  </diagram>
</mxfile>
